<?xml version="1.0" encoding="UTF-8"?>
<svg xmlns="http://www.w3.org/2000/svg" width="205" height="50" viewBox="0 0 205 50" fill="none">
  <g clip-path="url(#clip0_5953_48)">
    <path d="M99.9994 0.0702515H90V10.0475H99.9994V0.0702515Z" fill="#002245"></path>
    <path d="M109.999 10.0455H100V20.0227H109.999V10.0455Z" fill="#002245"></path>
    <path d="M125.001 20.0393C127.763 20.0393 130.002 17.8053 130.002 15.0496C130.002 12.2939 127.763 10.0599 125.001 10.0599C122.239 10.0599 120 12.2939 120 15.0496C120 17.8053 122.239 20.0393 125.001 20.0393Z" fill="#0C9EDA"></path>
    <path d="M45.0006 10.0537V49.9277H55V10.0537H45.0006ZM129.999 23.3698H120V49.9297H129.999V23.3698ZM30.0004 32.5826V32.8202L29.988 34.9752H30.0004V49.9277H39.9999V10.0516H30.0004V14.688C27.7123 12.1715 23.1257 10.0516 19.0754 10.0516C8.02606 10.0516 0 18.9731 0 29.9897C0 31.124 0.0869706 32.2335 0.262981 33.3161H0.275404C1.87606 42.7479 10.0885 49.9256 20.001 49.9256C21.7259 49.9256 23.4011 49.7128 25.0017 49.3016C26.7639 48.8409 28.4267 48.1549 29.9652 47.283L23.6019 39.7066C22.4775 40.1549 21.2641 40.4049 20.001 40.4049C15.6007 40.4049 11.8507 37.4401 10.5254 33.314C10.5006 33.2397 10.4757 33.1653 10.4509 33.0888V33.064C10.426 33.0021 10.4012 32.9277 10.3887 32.8512L10.3763 32.8264C10.3639 32.7521 10.339 32.6777 10.3142 32.6012V32.5764C10.3018 32.5021 10.2769 32.4277 10.2645 32.3388V32.3264C10.2396 32.252 10.2272 32.1777 10.2024 32.0888V32.0764C10.1899 31.9897 10.1775 31.9153 10.1651 31.8264C10.1278 31.6529 10.103 31.4897 10.0906 31.3161V31.3037C10.0781 31.2293 10.0657 31.1425 10.0533 31.0537V31.0413C10.0533 30.9545 10.0409 30.8801 10.0409 30.7913L10.0284 30.7789C10.0284 30.6921 10.0284 30.6054 10.016 30.5289V30.5165C10.016 30.4297 10.016 30.343 10.0036 30.2541V29.9793C10.0036 24.2355 14.4784 19.562 20.003 19.562C20.179 19.562 20.3406 19.5744 20.5145 19.5744L20.5518 19.5868C25.7886 19.8739 29.9901 24.2231 30.0025 29.5186V32.5826H30.0004ZM70.0003 10.0537C67.9502 10.0537 64.8504 10.2521 62.3759 11.0496C59.539 11.9587 56.1389 13.9525 55 15.0372L61.3509 22.5764C62.4753 21.6921 63.9393 20.7066 65.0016 20.283C67.4139 19.312 70.1266 19.3492 71.9509 20.3574C75.1377 22.1012 75.001 25.1178 75.001 29.0558V49.9277H85.0005V25.0062C85.0005 18.2273 81.7991 10.0537 70.0003 10.0537ZM194.199 10.0537C192.236 10.0537 190.399 10.4153 188.675 11.1384C186.95 11.8616 185.45 12.8574 184.175 14.1405C182.887 15.4111 181.874 16.8946 181.125 18.5888C180.375 20.283 180 22.1033 180 24.0599V49.9277H190V24.0475C190 21.8285 191.812 20.0227 194.038 20.0227H205V10.0537H194.199ZM155.001 10.0537C143.951 10.0537 135 18.9752 135 29.9917C135 41.0082 143.949 49.9297 155.001 49.9297C156.726 49.9297 158.401 49.7169 160.001 49.3058C163.014 48.533 165.752 47.0744 168.025 45.1198L161.764 37.6673C161.664 37.7541 161.575 37.8409 161.476 37.9297L161.401 37.9917C159.664 39.5 157.438 40.4091 155.001 40.4091C149.476 40.4091 145.001 35.7479 145.001 29.9917C145.001 24.2355 149.476 19.5744 155.001 19.5744C159.014 19.5744 162.476 22.0413 164.064 25.593L164.089 25.6301L164.101 25.6797L164.126 25.7169V25.7293C164.251 26.0165 164.364 26.314 164.464 26.6136L164.476 26.6632C164.576 26.9876 164.665 27.2996 164.714 27.6095H153.303L159.49 34.9731H174.378C174.79 33.3781 175.004 31.7087 175.004 29.9897C175 18.9752 166.05 10.0537 155.001 10.0537ZM100.001 35.9339V20.0227H90.0012V35.9359C90.0012 37.8801 90.376 39.6983 91.1256 41.3946C91.8752 43.0888 92.8878 44.5847 94.1758 45.8554C95.4513 47.126 96.9505 48.124 98.6754 48.845C100.4 49.5661 102.237 49.9297 104.2 49.9297H115.001V39.9607H104.039C101.813 39.9607 100.001 38.1529 100.001 35.9339Z" fill="#002245"></path>
  </g>
  <defs>
    <clipPath id="clip0_5953_48">
      <rect width="205" height="50" fill="white"></rect>
    </clipPath>
  </defs>
</svg>
